<svg width="16" height="16" viewBox="0 0 16 16" fill="none" xmlns="http://www.w3.org/2000/svg">
<path d="M3.33331 1.83333H12.6663C12.7105 1.83333 12.7532 1.8509 12.7845 1.88216C12.8157 1.91341 12.8333 1.95612 12.8333 2.00032V13.8333H14.0003C14.0443 13.8334 14.0863 13.8511 14.1175 13.8822C14.1487 13.9134 14.1663 13.9561 14.1663 14.0003C14.1662 14.0444 14.1487 14.0863 14.1175 14.1175C14.0863 14.1487 14.0444 14.1662 14.0003 14.1663H2.00031C1.9561 14.1663 1.9134 14.1488 1.88214 14.1175C1.85106 14.0863 1.8334 14.0443 1.83331 14.0003C1.83331 13.9561 1.85089 13.9134 1.88214 13.8822C1.9134 13.8509 1.9561 13.8333 2.00031 13.8333H3.16632V2.00032C3.16632 1.95619 3.18399 1.9134 3.21515 1.88216C3.23084 1.86646 3.24971 1.85432 3.26984 1.84602L3.33331 1.83333ZM3.50031 13.8333H6.50031V10.0003C6.50031 9.95612 6.51788 9.91341 6.54913 9.88216C6.5803 9.85108 6.62231 9.83341 6.66632 9.83333H9.33331C9.37752 9.83333 9.42022 9.8509 9.45148 9.88216C9.48263 9.9134 9.50031 9.95619 9.50031 10.0003V13.8333H12.5003V2.16634H3.50031V13.8333ZM6.83331 13.8333H9.16632V10.1663H6.83331V13.8333ZM6.00031 7.16634H6.66632C6.71045 7.16634 6.75324 7.18401 6.78448 7.21516C6.81574 7.24642 6.83331 7.28913 6.83331 7.33333C6.83331 7.37753 6.81574 7.42024 6.78448 7.45149C6.75324 7.48265 6.71045 7.50032 6.66632 7.50032H6.00031C5.95618 7.50032 5.91338 7.48265 5.88214 7.45149C5.85088 7.42024 5.83331 7.37753 5.83331 7.33333C5.83331 7.28913 5.85088 7.24642 5.88214 7.21516C5.91338 7.18401 5.95618 7.16634 6.00031 7.16634ZM9.33331 7.16634H10.0003C10.0442 7.16642 10.0863 7.18419 10.1175 7.21516C10.1487 7.24642 10.1663 7.28913 10.1663 7.33333C10.1663 7.37753 10.1487 7.42024 10.1175 7.45149C10.0863 7.48247 10.0442 7.50024 10.0003 7.50032H9.33331C9.28911 7.50032 9.24641 7.48275 9.21515 7.45149C9.18389 7.42024 9.16632 7.37753 9.16632 7.33333C9.16632 7.28913 9.18389 7.24642 9.21515 7.21516C9.24641 7.18391 9.28911 7.16634 9.33331 7.16634ZM6.00031 4.50032H6.66632C6.71052 4.50032 6.75323 4.51789 6.78448 4.54915C6.81556 4.58031 6.83323 4.62233 6.83331 4.66634C6.83331 4.71054 6.81574 4.75324 6.78448 4.7845C6.75323 4.81576 6.71052 4.83333 6.66632 4.83333H6.00031C5.9561 4.83333 5.9134 4.81576 5.88214 4.7845C5.85088 4.75324 5.83331 4.71054 5.83331 4.66634C5.8334 4.62233 5.85106 4.58031 5.88214 4.54915C5.9134 4.51789 5.9561 4.50032 6.00031 4.50032ZM9.33331 4.50032H10.0003C10.0444 4.50041 10.0863 4.51797 10.1175 4.54915C10.1487 4.58033 10.1662 4.62225 10.1663 4.66634C10.1663 4.71054 10.1487 4.75324 10.1175 4.7845C10.0863 4.81558 10.0443 4.83324 10.0003 4.83333H9.33331C9.28911 4.83333 9.24641 4.81576 9.21515 4.7845C9.18399 4.75326 9.16632 4.71046 9.16632 4.66634C9.16641 4.6224 9.18417 4.5803 9.21515 4.54915C9.24641 4.51789 9.28911 4.50032 9.33331 4.50032Z" fill="black" stroke="#737373"/>
</svg>
