<svg width="16" height="16" viewBox="0 0 16 16" fill="none" xmlns="http://www.w3.org/2000/svg">
<path d="M7.99994 2.16797C7.71682 2.16798 7.44321 2.27032 7.23041 2.45703L3.23041 5.95703V5.95801C3.10596 6.06734 3.00583 6.20167 2.93744 6.35254C2.86906 6.5034 2.83316 6.66737 2.83295 6.83301V12.667C2.83303 12.9761 2.95625 13.2725 3.17474 13.4912C3.39352 13.71 3.69054 13.833 3.99994 13.833H5.83295V10C5.83295 9.60227 5.99122 9.22074 6.2724 8.93945C6.55361 8.65824 6.93526 8.5001 7.33295 8.5H8.66693C9.06466 8.50007 9.44624 8.65821 9.72748 8.93945C10.0087 9.22074 10.1669 9.60224 10.1669 10V13.833H11.9999C12.3094 13.833 12.6063 13.71 12.8251 13.4912C13.0437 13.2725 13.1668 12.9762 13.1669 12.667V6.83301L13.1601 6.70898C13.1468 6.58598 13.1137 6.46569 13.0624 6.35254C12.9941 6.20183 12.8947 6.06727 12.7704 5.95801L12.7695 5.95703L8.76947 2.45703C8.55666 2.27034 8.28305 2.16797 7.99994 2.16797ZM7.33295 8.83301C7.02381 8.83311 6.7274 8.95629 6.50873 9.1748C6.28994 9.3936 6.16693 9.69058 6.16693 10V13.833H9.83295V10C9.83295 9.69058 9.70994 9.3936 9.49115 9.1748C9.27245 8.9563 8.97609 8.83308 8.66693 8.83301H7.33295ZM2.49994 6.83594C2.49826 6.62291 2.54167 6.41161 2.62787 6.2168C2.71407 6.02204 2.84119 5.84804 2.99994 5.70605L2.99896 5.70508L6.99603 2.20312L6.99994 2.19922C7.27493 1.95327 7.63101 1.8174 7.99994 1.81738C8.36886 1.81738 8.72494 1.9533 8.99994 2.19922L9.00385 2.20312L12.9999 5.70508V5.70605C13.1581 5.84753 13.2848 6.02091 13.371 6.21484C13.4572 6.40875 13.5009 6.61887 13.4999 6.83105V12.667C13.4999 13.0647 13.3417 13.4463 13.0605 13.7275C12.7792 14.0087 12.3977 14.167 11.9999 14.167H3.99994C3.6022 14.167 3.22067 14.0087 2.93939 13.7275C2.65816 13.4463 2.50002 13.0647 2.49994 12.667V6.83594Z" fill="#737373" stroke="#737373"/>
</svg>
