<svg width="36" height="36" viewBox="0 0 36 36" fill="none" xmlns="http://www.w3.org/2000/svg">
<rect width="36" height="36" rx="18" fill="white"/>
<path d="M16.9297 14.9971C17.9236 14.9612 18.8937 15.3016 19.6484 15.9482C19.6958 15.999 19.7417 16.0515 19.7842 16.1064L19.8057 16.1328L19.8301 16.1572C19.9249 16.2501 19.9791 16.377 19.9805 16.5098C19.9819 16.6424 19.9306 16.7704 19.8379 16.8652C19.7451 16.9601 19.618 17.0142 19.4854 17.0156C19.3527 17.017 19.2247 16.9658 19.1299 16.873L19.1152 16.8584L19.0996 16.8457L18.9795 16.7461C18.4174 16.2459 17.6862 15.9781 16.9336 15.998C16.1744 16.0182 15.4522 16.3293 14.916 16.8672L10.376 21.417C9.81832 21.9749 9.50488 22.7317 9.50488 23.5205C9.50499 24.3093 9.81818 25.0662 10.376 25.624C10.9338 26.1818 11.6906 26.495 12.4795 26.4951C13.266 26.4951 14.0198 26.1825 14.5771 25.6279L14.5781 25.6289L16.3223 23.9326C16.4192 23.8558 16.5414 23.8172 16.665 23.8252C16.7911 23.8334 16.9093 23.8896 16.9961 23.9814C17.0827 24.0732 17.1318 24.1941 17.1328 24.3203C17.1338 24.446 17.0865 24.5672 17.002 24.6602L15.29 26.332C14.5356 27.0198 13.5455 27.3917 12.5244 27.3701C11.4984 27.3483 10.5206 26.9308 9.79492 26.2051C9.06923 25.4794 8.65169 24.5016 8.62988 23.4756C8.60824 22.4531 8.98033 21.4609 9.66992 20.7061L14.2617 16.166L14.2646 16.1631C14.973 15.4507 15.9257 15.0333 16.9297 14.9971ZM23.5244 8.50488C24.578 8.50488 25.5894 8.92153 26.3369 9.66406C27.0727 10.4159 27.4813 11.4284 27.4746 12.4805C27.4679 13.5341 27.0452 14.5424 26.2979 15.2852L26.2959 15.2861L21.7461 19.8369C21.0365 20.5476 20.0837 20.9628 19.0801 20.999C18.0764 21.0353 17.096 20.6898 16.3369 20.0322L16.3252 20.0225L16.1377 19.8506L16.1299 19.8428L16.0664 19.7676C16.011 19.6865 15.9805 19.5899 15.9795 19.4902C15.9781 19.3575 16.0292 19.2296 16.1221 19.1348C16.2149 19.0399 16.3419 18.9858 16.4746 18.9844C16.6073 18.983 16.7352 19.0342 16.8301 19.127L16.8447 19.1416L16.8594 19.1543L16.9795 19.2539V19.2529C17.5417 19.7537 18.2733 20.0219 19.0264 20.002C19.6904 19.9843 20.3263 19.7442 20.834 19.3242L21.0439 19.1328L25.584 14.583L25.583 14.582C26.1404 14.0243 26.455 13.269 26.4551 12.4805C26.4551 11.6915 26.1409 10.9348 25.583 10.377C25.0251 9.81906 24.2685 9.50488 23.4795 9.50488C22.6909 9.50497 21.9347 9.81855 21.377 10.376L19.6748 12.0674C19.5781 12.1434 19.4579 12.1827 19.335 12.1748C19.209 12.1667 19.0907 12.1112 19.0039 12.0195C18.9171 11.9277 18.8682 11.806 18.8672 11.6797C18.8662 11.555 18.9119 11.4345 18.9951 11.3418L20.709 9.66797L20.7119 9.66504C21.4594 8.92224 22.4707 8.50499 23.5244 8.50488Z" fill="#999999" stroke="#999999"/>
</svg>
