<svg width="36" height="36" viewBox="0 0 36 36" fill="none" xmlns="http://www.w3.org/2000/svg">
<rect width="36" height="36" rx="18" fill="#FBF2D3"/>
<path d="M20 17.5102H22.42C22.5516 17.511 22.6821 17.4857 22.8039 17.436C22.9257 17.3862 23.0366 17.3129 23.13 17.2202L27.71 12.6402C27.8037 12.5472 27.8781 12.4366 27.9289 12.3148C27.9797 12.1929 28.0058 12.0622 28.0058 11.9302C28.0058 11.7982 27.9797 11.6675 27.9289 11.5456C27.8781 11.4238 27.8037 11.3132 27.71 11.2202L25.29 8.80019C25.197 8.70646 25.0864 8.63207 24.9646 8.5813C24.8427 8.53053 24.712 8.50439 24.58 8.50439C24.448 8.50439 24.3173 8.53053 24.1954 8.5813C24.0736 8.63207 23.963 8.70646 23.87 8.80019L19.29 13.3802C19.1073 13.5718 19.0037 13.8254 19 14.0902V16.5102C19 16.7754 19.1054 17.0298 19.2929 17.2173C19.4804 17.4048 19.7348 17.5102 20 17.5102ZM21 14.5102L24.58 10.9302L25.58 11.9302L22 15.5102H21V14.5102ZM27 16.5102C26.7348 16.5102 26.4804 16.6155 26.2929 16.8031C26.1054 16.9906 26 17.245 26 17.5102V24.5102C26 24.7754 25.8946 25.0298 25.7071 25.2173C25.5196 25.4048 25.2652 25.5102 25 25.5102H11C10.7348 25.5102 10.4804 25.4048 10.2929 25.2173C10.1054 25.0298 10 24.7754 10 24.5102V14.9002L15.88 20.7902C16.1591 21.0729 16.4915 21.2974 16.858 21.4506C17.2245 21.6038 17.6178 21.6826 18.015 21.6826C18.4122 21.6826 18.8055 21.6038 19.172 21.4506C19.5385 21.2974 19.8709 21.0729 20.15 20.7902C20.3332 20.6033 20.4359 20.3519 20.4359 20.0902C20.4359 19.8284 20.3332 19.5771 20.15 19.3902C20.0569 19.2949 19.9456 19.2193 19.8229 19.1676C19.7001 19.1159 19.5682 19.0893 19.435 19.0893C19.3018 19.0893 19.1699 19.1159 19.0471 19.1676C18.9244 19.2193 18.8131 19.2949 18.72 19.3902C18.5331 19.5734 18.2818 19.6761 18.02 19.6761C17.7582 19.6761 17.5069 19.5734 17.32 19.3902L11.41 13.4902H16C16.2652 13.4902 16.5196 13.3848 16.7071 13.1973C16.8946 13.0098 17 12.7554 17 12.4902C17 12.225 16.8946 11.9706 16.7071 11.7831C16.5196 11.5955 16.2652 11.4902 16 11.4902H11C10.2044 11.4902 9.44129 11.8063 8.87868 12.3689C8.31607 12.9315 8 13.6945 8 14.4902V24.4902C8 25.2858 8.31607 26.0489 8.87868 26.6115C9.44129 27.1741 10.2044 27.4902 11 27.4902H25C25.7956 27.4902 26.5587 27.1741 27.1213 26.6115C27.6839 26.0489 28 25.2858 28 24.4902V17.4902C28 17.225 27.8946 16.9706 27.7071 16.7831C27.5196 16.5955 27.2652 16.4902 27 16.4902V16.5102Z" fill="#CF6D16"/>
</svg>
