<svg width="18" height="25" viewBox="0 0 18 25" fill="none" xmlns="http://www.w3.org/2000/svg">
<path d="M16.9997 9.67019C16.8123 9.48394 16.5589 9.37939 16.2947 9.37939C16.0305 9.37939 15.7771 9.48394 15.5897 9.67019L11.9997 13.2102L8.4597 9.67019C8.27234 9.48394 8.01889 9.37939 7.7547 9.37939C7.49052 9.37939 7.23707 9.48394 7.0497 9.67019C6.95598 9.76315 6.88158 9.87375 6.83081 9.99561C6.78004 10.1175 6.75391 10.2482 6.75391 10.3802C6.75391 10.5122 6.78004 10.6429 6.83081 10.7648C6.88158 10.8866 6.95598 10.9972 7.0497 11.0902L11.2897 15.3302C11.3827 15.4239 11.4933 15.4983 11.6151 15.5491C11.737 15.5998 11.8677 15.626 11.9997 15.626C12.1317 15.626 12.2624 15.5998 12.3843 15.5491C12.5061 15.4983 12.6167 15.4239 12.7097 15.3302L16.9997 11.0902C17.0934 10.9972 17.1678 10.8866 17.2186 10.7648C17.2694 10.6429 17.2955 10.5122 17.2955 10.3802C17.2955 10.2482 17.2694 10.1175 17.2186 9.99561C17.1678 9.87375 17.0934 9.76315 16.9997 9.67019Z" fill="#B3B3B3"/>
</svg>
