<svg width="41" height="41" viewBox="0 0 41 41" fill="none" xmlns="http://www.w3.org/2000/svg">
<rect y="5" width="36" height="36" rx="18" fill="white"/>
<path d="M24.6589 14.6685C24.5494 14.6684 24.441 14.6899 24.3399 14.7318C24.2387 14.7736 24.1469 14.835 24.0695 14.9124C23.9921 14.9898 23.9307 15.0817 23.8888 15.1828C23.847 15.2839 23.8255 15.3923 23.8255 15.5018V16.0324C23.1227 16.9038 22.2344 17.6076 21.2253 18.0924C20.2162 18.5772 19.1117 18.831 17.9922 18.8351H12.9922C12.3294 18.8358 11.6939 19.0995 11.2252 19.5682C10.7565 20.0368 10.4929 20.6723 10.4922 21.3351V23.0018C10.4929 23.6646 10.7565 24.3001 11.2252 24.7688C11.6939 25.2374 12.3294 25.5011 12.9922 25.5018H13.3953L11.3931 30.1738C11.3387 30.3005 11.3166 30.4388 11.3288 30.5761C11.341 30.7135 11.3871 30.8457 11.463 30.9608C11.539 31.0759 11.6423 31.1704 11.7637 31.2357C11.8852 31.3011 12.0209 31.3352 12.1589 31.3351H15.4922C15.6553 31.3352 15.8149 31.2874 15.951 31.1975C16.0872 31.1077 16.1939 30.9798 16.258 30.8298L18.5278 25.5335C19.5533 25.6088 20.5525 25.8935 21.4637 26.3701C22.3749 26.8466 23.1787 27.505 23.8255 28.3043V28.8351C23.8255 29.0561 23.9133 29.2681 24.0696 29.4244C24.2259 29.5807 24.4378 29.6685 24.6589 29.6685C24.8799 29.6685 25.0918 29.5807 25.2481 29.4244C25.4044 29.2681 25.4922 29.0561 25.4922 28.8351V15.5018C25.4923 15.3923 25.4707 15.2839 25.4289 15.1828C25.387 15.0817 25.3256 14.9898 25.2482 14.9124C25.1709 14.835 25.079 14.7736 24.9778 14.7318C24.8767 14.6899 24.7683 14.6684 24.6589 14.6685V14.6685ZM12.9922 23.8351C12.7712 23.835 12.5593 23.7471 12.4031 23.5909C12.2468 23.4346 12.159 23.2228 12.1589 23.0018V21.3351C12.159 21.1142 12.2468 20.9023 12.4031 20.746C12.5593 20.5898 12.7712 20.5019 12.9922 20.5018H13.8255V23.8351H12.9922ZM14.9429 29.6685H13.4227L15.2082 25.5018H16.7284L14.9429 29.6685ZM23.8255 25.9366C22.1824 24.583 20.1211 23.8404 17.9922 23.8351H15.4922V20.5017H17.9922C20.1211 20.4963 22.1824 19.7535 23.8255 18.3998V25.9366Z" fill="#999999"/>
<rect x="24.5" y="0.5" width="16" height="17" rx="8" fill="#EF5350"/>
<rect x="24.5" y="0.5" width="16" height="17" rx="8" stroke="white"/>
<path d="M29.5149 11.6506V10.603L32.6009 5.72727H33.4744V7.21875H32.9418L30.8643 10.5107V10.5675H35.1719V11.6506H29.5149ZM32.9844 13V11.331L32.9986 10.8622V5.72727H34.2415V13H32.9844Z" fill="white"/>
</svg>
