<svg width="22" height="22" viewBox="0 0 22 22" fill="none" xmlns="http://www.w3.org/2000/svg">
<path d="M12.3529 7.4706H13.2353C13.4693 7.4706 13.6937 7.37764 13.8592 7.21217C14.0247 7.04669 14.1177 6.82226 14.1177 6.58825C14.1177 6.35423 14.0247 6.1298 13.8592 5.96433C13.6937 5.79886 13.4693 5.70589 13.2353 5.70589H12.3529C12.1189 5.70589 11.8945 5.79886 11.729 5.96433C11.5636 6.1298 11.4706 6.35423 11.4706 6.58825C11.4706 6.82226 11.5636 7.04669 11.729 7.21217C11.8945 7.37764 12.1189 7.4706 12.3529 7.4706ZM12.3529 11H13.2353C13.4693 11 13.6937 10.9071 13.8592 10.7416C14.0247 10.5761 14.1177 10.3517 14.1177 10.1177C14.1177 9.88365 14.0247 9.65922 13.8592 9.49374C13.6937 9.32827 13.4693 9.23531 13.2353 9.23531H12.3529C12.1189 9.23531 11.8945 9.32827 11.729 9.49374C11.5636 9.65922 11.4706 9.88365 11.4706 10.1177C11.4706 10.3517 11.5636 10.5761 11.729 10.7416C11.8945 10.9071 12.1189 11 12.3529 11ZM7.94118 7.4706H8.82353C9.05755 7.4706 9.28198 7.37764 9.44745 7.21217C9.61292 7.04669 9.70589 6.82226 9.70589 6.58825C9.70589 6.35423 9.61292 6.1298 9.44745 5.96433C9.28198 5.79886 9.05755 5.70589 8.82353 5.70589H7.94118C7.70717 5.70589 7.48274 5.79886 7.31726 5.96433C7.15179 6.1298 7.05883 6.35423 7.05883 6.58825C7.05883 6.82226 7.15179 7.04669 7.31726 7.21217C7.48274 7.37764 7.70717 7.4706 7.94118 7.4706ZM7.94118 11H8.82353C9.05755 11 9.28198 10.9071 9.44745 10.7416C9.61292 10.5761 9.70589 10.3517 9.70589 10.1177C9.70589 9.88365 9.61292 9.65922 9.44745 9.49374C9.28198 9.32827 9.05755 9.23531 8.82353 9.23531H7.94118C7.70717 9.23531 7.48274 9.32827 7.31726 9.49374C7.15179 9.65922 7.05883 9.88365 7.05883 10.1177C7.05883 10.3517 7.15179 10.5761 7.31726 10.7416C7.48274 10.9071 7.70717 11 7.94118 11ZM18.5294 18.0588H17.6471V3.05884C17.6471 2.82482 17.5541 2.60039 17.3886 2.43492C17.2232 2.26945 16.9987 2.17648 16.7647 2.17648H4.41177C4.17775 2.17648 3.95332 2.26945 3.78785 2.43492C3.62238 2.60039 3.52942 2.82482 3.52942 3.05884V18.0588H2.64706C2.41305 18.0588 2.18862 18.1518 2.02314 18.3173C1.85767 18.4827 1.76471 18.7072 1.76471 18.9412C1.76471 19.1752 1.85767 19.3996 2.02314 19.5651C2.18862 19.7306 2.41305 19.8235 2.64706 19.8235H18.5294C18.7634 19.8235 18.9879 19.7306 19.1533 19.5651C19.3188 19.3996 19.4118 19.1752 19.4118 18.9412C19.4118 18.7072 19.3188 18.4827 19.1533 18.3173C18.9879 18.1518 18.7634 18.0588 18.5294 18.0588ZM11.4706 18.0588H9.70589V14.5294H11.4706V18.0588ZM15.8824 18.0588H13.2353V13.6471C13.2353 13.4131 13.1423 13.1886 12.9769 13.0232C12.8114 12.8577 12.587 12.7647 12.3529 12.7647H8.82353C8.58952 12.7647 8.36509 12.8577 8.19962 13.0232C8.03414 13.1886 7.94118 13.4131 7.94118 13.6471V18.0588H5.29412V3.94119H15.8824V18.0588Z" fill="#B3B3B3"/>
</svg>
