<svg width="22" height="22" viewBox="0 0 22 22" fill="none" xmlns="http://www.w3.org/2000/svg">
<path d="M15 1.29459C15.234 1.29459 15.4586 1.38694 15.624 1.5524C15.7895 1.71786 15.8828 1.94243 15.8828 2.17642V3.05923H16.7646C17.4667 3.05923 18.1403 3.33821 18.6367 3.83463C19.1329 4.33097 19.4121 5.00391 19.4121 5.70572V18.0592C19.412 18.761 19.1329 19.434 18.6367 19.9303C18.1403 20.4267 17.4667 20.7057 16.7646 20.7057H4.41211C3.71007 20.7057 3.03646 20.4267 2.54004 19.9303C2.04379 19.434 1.76476 18.7611 1.76465 18.0592V5.70572C1.76469 5.00385 2.0438 4.33098 2.54004 3.83463C3.03646 3.33821 3.71007 3.05923 4.41211 3.05923H5.29395V2.17642C5.29396 1.94243 5.38727 1.71786 5.55273 1.5524C5.71819 1.38703 5.94282 1.29459 6.17676 1.29459C6.41067 1.29466 6.63538 1.38699 6.80078 1.5524C6.96617 1.71785 7.05858 1.94248 7.05859 2.17642V3.05923H14.1172V2.17642C14.1172 1.94243 14.2105 1.71786 14.376 1.5524C14.5414 1.38694 14.766 1.29459 15 1.29459ZM3.5293 18.0592C3.5294 18.293 3.62278 18.5169 3.78809 18.6823C3.95356 18.8478 4.17809 18.9411 4.41211 18.9411H16.7646C16.9987 18.9411 17.2232 18.8478 17.3887 18.6823C17.5539 18.5169 17.6474 18.293 17.6475 18.0592V10.1178H3.5293V18.0592ZM11.6172 12.2213C11.9792 11.8483 12.5657 11.8482 12.9277 12.2213C13.2898 12.5948 13.2897 13.2003 12.9277 13.5739L11.8994 14.6354L13.0977 15.8717C13.4596 16.2453 13.4597 16.8508 13.0977 17.2243C12.7356 17.5978 12.1482 17.5978 11.7861 17.2243L10.5879 15.9879L9.38965 17.2243C9.02761 17.5976 8.44115 17.5976 8.0791 17.2243C7.71702 16.8507 7.71702 16.2453 8.0791 15.8717L9.27734 14.6354L8.24805 13.5739C7.88636 13.2003 7.88612 12.5947 8.24805 12.2213C8.61007 11.8479 9.19748 11.848 9.55957 12.2213L10.5879 13.2829L11.6172 12.2213ZM4.41211 4.82388C4.17822 4.82388 3.95353 4.91638 3.78809 5.0817C3.62265 5.24713 3.52934 5.47177 3.5293 5.70572V8.35318H17.6475V5.70572C17.6474 5.47177 17.5541 5.24713 17.3887 5.0817C17.2232 4.91629 16.9986 4.82388 16.7646 4.82388H15.8828V5.70572C15.8828 5.93969 15.7894 6.16428 15.624 6.32974C15.4586 6.49522 15.234 6.58853 15 6.58853C14.766 6.58853 14.5414 6.49522 14.376 6.32974C14.2106 6.16428 14.1172 5.93969 14.1172 5.70572V4.82388H7.05859V5.70572C7.05859 5.93963 6.96611 6.16429 6.80078 6.32974C6.63538 6.49515 6.41067 6.58846 6.17676 6.58853C5.94277 6.58853 5.7182 6.49518 5.55273 6.32974C5.38726 6.16427 5.29395 5.93973 5.29395 5.70572V4.82388H4.41211Z" fill="#B3B3B3"/>
</svg>
