<svg width="22" height="22" viewBox="0 0 22 22" fill="none" xmlns="http://www.w3.org/2000/svg">
<path d="M18.6856 15.1557L16.5503 13.0204C16.4683 12.9377 16.3707 12.8721 16.2632 12.8273C16.1557 12.7825 16.0403 12.7594 15.9238 12.7594C15.8074 12.7594 15.692 12.7825 15.5845 12.8273C15.477 12.8721 15.3794 12.9377 15.2974 13.0204L12.1386 16.1793C12.0568 16.2617 11.9921 16.3595 11.9482 16.467C11.9043 16.5745 11.882 16.6896 11.8827 16.8057V18.941C11.8827 19.1751 11.9756 19.3995 12.1411 19.565C12.3066 19.7304 12.531 19.8234 12.765 19.8234H14.9003C15.0164 19.8241 15.1316 19.8018 15.2391 19.7579C15.3466 19.714 15.4443 19.6493 15.5268 19.5675L18.6856 16.4087C18.7683 16.3267 18.834 16.2291 18.8788 16.1215C18.9235 16.014 18.9466 15.8987 18.9466 15.7822C18.9466 15.6657 18.9235 15.5504 18.8788 15.4429C18.834 15.3354 18.7683 15.2378 18.6856 15.1557ZM14.5297 18.0587H13.6474V17.1763L15.9238 14.8999L16.8062 15.7822L14.5297 18.0587ZM9.23561 18.0587H5.7062C5.47219 18.0587 5.24776 17.9657 5.08228 17.8002C4.91681 17.6348 4.82385 17.4103 4.82385 17.1763V4.82339C4.82385 4.58937 4.91681 4.36495 5.08228 4.19947C5.24776 4.034 5.47219 3.94104 5.7062 3.94104H10.118V6.5881C10.118 7.29014 10.3969 7.96343 10.8933 8.45985C11.3897 8.95627 12.063 9.23515 12.765 9.23515H15.4121V10.1175C15.4121 10.3515 15.505 10.576 15.6705 10.7414C15.836 10.9069 16.0604 10.9999 16.2944 10.9999C16.5285 10.9999 16.7529 10.9069 16.9184 10.7414C17.0838 10.576 17.1768 10.3515 17.1768 10.1175V8.3528C17.1768 8.3528 17.1768 8.3528 17.1768 8.29986C17.1676 8.2188 17.1499 8.13895 17.1238 8.06163V7.98221C17.0814 7.89149 17.0248 7.80809 16.9562 7.73515L11.6621 2.44104C11.5891 2.3724 11.5057 2.31581 11.415 2.27339C11.3887 2.26965 11.362 2.26965 11.3356 2.27339L11.0533 2.17633H5.7062C5.00416 2.17633 4.33087 2.45522 3.83445 2.95164C3.33803 3.44806 3.05914 4.12135 3.05914 4.82339V17.1763C3.05914 17.8784 3.33803 18.5517 3.83445 19.0481C4.33087 19.5445 5.00416 19.8234 5.7062 19.8234H9.23561C9.46963 19.8234 9.69406 19.7304 9.85953 19.565C10.025 19.3995 10.118 19.1751 10.118 18.941C10.118 18.707 10.025 18.4826 9.85953 18.3171C9.69406 18.1516 9.46963 18.0587 9.23561 18.0587ZM11.8827 5.18515L14.168 7.47045H12.765C12.531 7.47045 12.3066 7.37749 12.1411 7.21201C11.9756 7.04654 11.8827 6.82211 11.8827 6.5881V5.18515ZM7.47091 12.7646H12.765C12.999 12.7646 13.2235 12.6716 13.3889 12.5061C13.5544 12.3407 13.6474 12.1162 13.6474 11.8822C13.6474 11.6482 13.5544 11.4238 13.3889 11.2583C13.2235 11.0928 12.999 10.9999 12.765 10.9999H7.47091C7.23689 10.9999 7.01246 11.0928 6.84699 11.2583C6.68152 11.4238 6.58855 11.6482 6.58855 11.8822C6.58855 12.1162 6.68152 12.3407 6.84699 12.5061C7.01246 12.6716 7.23689 12.7646 7.47091 12.7646ZM7.47091 9.23515H8.35326C8.58728 9.23515 8.8117 9.14219 8.97718 8.97672C9.14265 8.81125 9.23561 8.58682 9.23561 8.3528C9.23561 8.11879 9.14265 7.89436 8.97718 7.72888C8.8117 7.56341 8.58728 7.47045 8.35326 7.47045H7.47091C7.23689 7.47045 7.01246 7.56341 6.84699 7.72888C6.68152 7.89436 6.58855 8.11879 6.58855 8.3528C6.58855 8.58682 6.68152 8.81125 6.84699 8.97672C7.01246 9.14219 7.23689 9.23515 7.47091 9.23515ZM9.23561 14.5293H7.47091C7.23689 14.5293 7.01246 14.6222 6.84699 14.7877C6.68152 14.9532 6.58855 15.1776 6.58855 15.4116C6.58855 15.6456 6.68152 15.8701 6.84699 16.0355C7.01246 16.201 7.23689 16.294 7.47091 16.294H9.23561C9.46963 16.294 9.69406 16.201 9.85953 16.0355C10.025 15.8701 10.118 15.6456 10.118 15.4116C10.118 15.1776 10.025 14.9532 9.85953 14.7877C9.69406 14.6222 9.46963 14.5293 9.23561 14.5293Z" fill="white"/>
</svg>
