<svg width="34" height="34" viewBox="0 0 34 34" fill="none" xmlns="http://www.w3.org/2000/svg">
<rect width="34" height="34" rx="17" fill="white"/>
<path d="M20.4008 13.5992C20.3156 13.5133 20.2142 13.4451 20.1025 13.3985C19.9908 13.352 19.871 13.328 19.75 13.328C19.629 13.328 19.5092 13.352 19.3975 13.3985C19.2858 13.4451 19.1844 13.5133 19.0992 13.5992L17 15.7075L14.9008 13.5992C14.7282 13.4266 14.4941 13.3296 14.25 13.3296C14.0059 13.3296 13.7718 13.4266 13.5992 13.5992C13.4266 13.7718 13.3296 14.0059 13.3296 14.25C13.3296 14.4941 13.4266 14.7282 13.5992 14.9008L15.7075 17L13.5992 19.0992C13.5133 19.1844 13.4451 19.2858 13.3985 19.3975C13.352 19.5092 13.328 19.629 13.328 19.75C13.328 19.871 13.352 19.9908 13.3985 20.1025C13.4451 20.2142 13.5133 20.3156 13.5992 20.4008C13.6844 20.4868 13.7858 20.555 13.8975 20.6015C14.0092 20.648 14.129 20.672 14.25 20.672C14.371 20.672 14.4908 20.648 14.6025 20.6015C14.7142 20.555 14.8156 20.4868 14.9008 20.4008L17 18.2925L19.0992 20.4008C19.1844 20.4868 19.2858 20.555 19.3975 20.6015C19.5092 20.648 19.629 20.672 19.75 20.672C19.871 20.672 19.9908 20.648 20.1025 20.6015C20.2142 20.555 20.3156 20.4868 20.4008 20.4008C20.4868 20.3156 20.555 20.2142 20.6015 20.1025C20.648 19.9908 20.672 19.871 20.672 19.75C20.672 19.629 20.648 19.5092 20.6015 19.3975C20.555 19.2858 20.4868 19.1844 20.4008 19.0992L18.2925 17L20.4008 14.9008C20.4868 14.8156 20.555 14.7142 20.6015 14.6025C20.648 14.4908 20.672 14.371 20.672 14.25C20.672 14.129 20.648 14.0092 20.6015 13.8975C20.555 13.7858 20.4868 13.6844 20.4008 13.5992ZM23.4808 10.5192C22.6353 9.64367 21.6238 8.94533 20.5054 8.46492C19.387 7.9845 18.1842 7.73163 16.967 7.72105C15.7499 7.71047 14.5428 7.9424 13.4163 8.40331C12.2897 8.86422 11.2662 9.54487 10.4056 10.4056C9.54487 11.2662 8.86422 12.2897 8.40331 13.4163C7.9424 14.5428 7.71047 15.7499 7.72105 16.967C7.73163 18.1842 7.9845 19.387 8.46492 20.5054C8.94533 21.6238 9.64367 22.6353 10.5192 23.4808C11.3648 24.3564 12.3763 25.0547 13.4946 25.5351C14.613 26.0155 15.8159 26.2684 17.033 26.279C18.2501 26.2896 19.4572 26.0576 20.5838 25.5967C21.7103 25.1358 22.7338 24.4552 23.5945 23.5945C24.4552 22.7338 25.1358 21.7103 25.5967 20.5838C26.0576 19.4572 26.2896 18.2501 26.279 17.033C26.2684 15.8159 26.0155 14.613 25.5351 13.4946C25.0547 12.3763 24.3564 11.3648 23.4808 10.5192ZM22.1883 22.1883C20.9894 23.3886 19.4113 24.1361 17.7231 24.3034C16.0348 24.4707 14.3408 24.0474 12.9296 23.1057C11.5184 22.164 10.4773 20.7622 9.98382 19.139C9.4903 17.5159 9.57483 15.7718 10.223 14.204C10.8712 12.6362 12.0429 11.3416 13.5386 10.5408C15.0342 9.73999 16.7613 9.48255 18.4254 9.81231C20.0896 10.1421 21.588 11.0386 22.6652 12.3493C23.7425 13.6599 24.332 15.3035 24.3333 17C24.3366 17.9637 24.1487 18.9185 23.7805 19.809C23.4123 20.6996 22.8712 21.5083 22.1883 22.1883Z" fill="#E6E6E6"/>
</svg>
