<svg width="34" height="34" viewBox="0 0 34 34" fill="none" xmlns="http://www.w3.org/2000/svg">
<rect width="34" height="34" rx="17" fill="#29B6F6" fill-opacity="0.1"/>
<path d="M11.0416 22.0416H9.66665V11.9583H16.8166L16.0833 12.6825C15.9107 12.8539 15.8132 13.0868 15.8124 13.3301C15.8115 13.5733 15.9073 13.8069 16.0787 13.9796C16.2501 14.1522 16.4831 14.2496 16.7263 14.2505C16.9696 14.2513 17.2032 14.1555 17.3758 13.9841L19.6675 11.6925C19.7534 11.6073 19.8216 11.5059 19.8681 11.3942C19.9147 11.2825 19.9386 11.1627 19.9386 11.0416C19.9386 10.9206 19.9147 10.8008 19.8681 10.6891C19.8216 10.5774 19.7534 10.476 19.6675 10.3908L17.3758 8.09914C17.2041 7.92841 16.9717 7.83258 16.7296 7.83258C16.4874 7.83258 16.2551 7.92841 16.0833 8.09914C15.9974 8.18436 15.9292 8.28574 15.8827 8.39745C15.8361 8.50915 15.8122 8.62896 15.8122 8.74997C15.8122 8.87098 15.8361 8.9908 15.8827 9.1025C15.9292 9.21421 15.9974 9.31559 16.0833 9.40081L16.8075 10.125H8.74998C8.50686 10.125 8.27371 10.2216 8.1018 10.3935C7.92989 10.5654 7.83331 10.7985 7.83331 11.0416V22.9583C7.83331 23.2014 7.92989 23.4346 8.1018 23.6065C8.27371 23.7784 8.50686 23.875 8.74998 23.875H11.0416C11.2848 23.875 11.5179 23.7784 11.6898 23.6065C11.8617 23.4346 11.9583 23.2014 11.9583 22.9583C11.9583 22.7152 11.8617 22.482 11.6898 22.3101C11.5179 22.1382 11.2848 22.0416 11.0416 22.0416ZM25.25 10.125H22.9583C22.7152 10.125 22.482 10.2216 22.3101 10.3935C22.1382 10.5654 22.0416 10.7985 22.0416 11.0416C22.0416 11.2848 22.1382 11.5179 22.3101 11.6898C22.482 11.8617 22.7152 11.9583 22.9583 11.9583H24.3333V22.0416H16.6608L17.385 21.3175C17.4709 21.2323 17.5391 21.1309 17.5856 21.0192C17.6322 20.9075 17.6561 20.7877 17.6561 20.6666C17.6561 20.5456 17.6322 20.4258 17.5856 20.3141C17.5391 20.2024 17.4709 20.101 17.385 20.0158C17.2132 19.8451 16.9809 19.7492 16.7387 19.7492C16.4966 19.7492 16.2642 19.8451 16.0925 20.0158L13.8008 22.3075C13.7149 22.3927 13.6467 22.4941 13.6002 22.6058C13.5536 22.7175 13.5297 22.8373 13.5297 22.9583C13.5297 23.0793 13.5536 23.1991 13.6002 23.3108C13.6467 23.4225 13.7149 23.5239 13.8008 23.6091L16.0925 25.9008C16.2651 26.0722 16.4987 26.168 16.742 26.1672C16.9852 26.1663 17.2182 26.0688 17.3896 25.8962C17.561 25.7236 17.6568 25.49 17.6559 25.2467C17.655 25.0035 17.5576 24.7705 17.385 24.5991L16.6608 23.875H25.25C25.4931 23.875 25.7263 23.7784 25.8982 23.6065C26.0701 23.4346 26.1666 23.2014 26.1666 22.9583V11.0416C26.1666 10.7985 26.0701 10.5654 25.8982 10.3935C25.7263 10.2216 25.4931 10.125 25.25 10.125Z" fill="#29B6F6"/>
</svg>
