<svg width="24" height="25" viewBox="0 0 24 25" fill="none" xmlns="http://www.w3.org/2000/svg">
<path d="M14 8.5H15C15.2652 8.5 15.5196 8.39464 15.7071 8.20711C15.8946 8.01957 16 7.76522 16 7.5C16 7.23478 15.8946 6.98043 15.7071 6.79289C15.5196 6.60536 15.2652 6.5 15 6.5H14C13.7348 6.5 13.4804 6.60536 13.2929 6.79289C13.1054 6.98043 13 7.23478 13 7.5C13 7.76522 13.1054 8.01957 13.2929 8.20711C13.4804 8.39464 13.7348 8.5 14 8.5ZM14 12.5H15C15.2652 12.5 15.5196 12.3946 15.7071 12.2071C15.8946 12.0196 16 11.7652 16 11.5C16 11.2348 15.8946 10.9804 15.7071 10.7929C15.5196 10.6054 15.2652 10.5 15 10.5H14C13.7348 10.5 13.4804 10.6054 13.2929 10.7929C13.1054 10.9804 13 11.2348 13 11.5C13 11.7652 13.1054 12.0196 13.2929 12.2071C13.4804 12.3946 13.7348 12.5 14 12.5ZM9 8.5H10C10.2652 8.5 10.5196 8.39464 10.7071 8.20711C10.8946 8.01957 11 7.76522 11 7.5C11 7.23478 10.8946 6.98043 10.7071 6.79289C10.5196 6.60536 10.2652 6.5 10 6.5H9C8.73478 6.5 8.48043 6.60536 8.29289 6.79289C8.10536 6.98043 8 7.23478 8 7.5C8 7.76522 8.10536 8.01957 8.29289 8.20711C8.48043 8.39464 8.73478 8.5 9 8.5ZM9 12.5H10C10.2652 12.5 10.5196 12.3946 10.7071 12.2071C10.8946 12.0196 11 11.7652 11 11.5C11 11.2348 10.8946 10.9804 10.7071 10.7929C10.5196 10.6054 10.2652 10.5 10 10.5H9C8.73478 10.5 8.48043 10.6054 8.29289 10.7929C8.10536 10.9804 8 11.2348 8 11.5C8 11.7652 8.10536 12.0196 8.29289 12.2071C8.48043 12.3946 8.73478 12.5 9 12.5ZM21 20.5H20V3.5C20 3.23478 19.8946 2.98043 19.7071 2.79289C19.5196 2.60536 19.2652 2.5 19 2.5H5C4.73478 2.5 4.48043 2.60536 4.29289 2.79289C4.10536 2.98043 4 3.23478 4 3.5V20.5H3C2.73478 20.5 2.48043 20.6054 2.29289 20.7929C2.10536 20.9804 2 21.2348 2 21.5C2 21.7652 2.10536 22.0196 2.29289 22.2071C2.48043 22.3946 2.73478 22.5 3 22.5H21C21.2652 22.5 21.5196 22.3946 21.7071 22.2071C21.8946 22.0196 22 21.7652 22 21.5C22 21.2348 21.8946 20.9804 21.7071 20.7929C21.5196 20.6054 21.2652 20.5 21 20.5ZM13 20.5H11V16.5H13V20.5ZM18 20.5H15V15.5C15 15.2348 14.8946 14.9804 14.7071 14.7929C14.5196 14.6054 14.2652 14.5 14 14.5H10C9.73478 14.5 9.48043 14.6054 9.29289 14.7929C9.10536 14.9804 9 15.2348 9 15.5V20.5H6V4.5H18V20.5Z" fill="#737373"/>
</svg>
