<svg width="16" height="17" viewBox="0 0 16 17" fill="none" xmlns="http://www.w3.org/2000/svg">
<path d="M3.33334 2.33333H12.6664C12.7106 2.33333 12.7533 2.3509 12.7845 2.38216C12.8158 2.41341 12.8333 2.45612 12.8333 2.50032V14.3333H14.0003C14.0443 14.3334 14.0864 14.3511 14.1175 14.3822C14.1488 14.4134 14.1664 14.4561 14.1664 14.5003C14.1663 14.5444 14.1487 14.5863 14.1175 14.6175C14.0863 14.6487 14.0444 14.6662 14.0003 14.6663H2.00034C1.95613 14.6663 1.91343 14.6488 1.88217 14.6175C1.8511 14.5863 1.83343 14.5443 1.83334 14.5003C1.83334 14.4561 1.85092 14.4134 1.88217 14.3822C1.91343 14.3509 1.95613 14.3333 2.00034 14.3333H3.16635V2.50032C3.16635 2.45619 3.18402 2.4134 3.21518 2.38216C3.23087 2.36646 3.24974 2.35432 3.26987 2.34602L3.33334 2.33333ZM3.50034 14.3333H6.50034V10.5003C6.50034 10.4561 6.51791 10.4134 6.54916 10.3822C6.58033 10.3511 6.62234 10.3334 6.66635 10.3333H9.33334C9.37755 10.3333 9.42025 10.3509 9.45151 10.3822C9.48266 10.4134 9.50034 10.4562 9.50034 10.5003V14.3333H12.5003V2.66634H3.50034V14.3333ZM6.83334 14.3333H9.16635V10.6663H6.83334V14.3333ZM6.00034 7.66634H6.66635C6.71048 7.66634 6.75327 7.68401 6.78452 7.71516C6.81577 7.74642 6.83334 7.78913 6.83334 7.83333C6.83334 7.87753 6.81577 7.92024 6.78452 7.95149C6.75327 7.98265 6.71048 8.00032 6.66635 8.00032H6.00034C5.95621 8.00032 5.91341 7.98265 5.88217 7.95149C5.85092 7.92024 5.83334 7.87753 5.83334 7.83333C5.83334 7.78913 5.85091 7.74642 5.88217 7.71516C5.91341 7.68401 5.95621 7.66634 6.00034 7.66634ZM9.33334 7.66634H10.0003C10.0443 7.66642 10.0864 7.68419 10.1175 7.71516C10.1488 7.74642 10.1664 7.78913 10.1664 7.83333C10.1664 7.87753 10.1488 7.92024 10.1175 7.95149C10.0864 7.98247 10.0443 8.00024 10.0003 8.00032H9.33334C9.28914 8.00032 9.24644 7.98275 9.21518 7.95149C9.18392 7.92024 9.16635 7.87753 9.16635 7.83333C9.16635 7.78913 9.18392 7.74642 9.21518 7.71516C9.24644 7.68391 9.28914 7.66634 9.33334 7.66634ZM6.00034 5.00032H6.66635C6.71055 5.00032 6.75326 5.01789 6.78452 5.04915C6.81559 5.08031 6.83326 5.12233 6.83334 5.16634C6.83334 5.21054 6.81577 5.25324 6.78452 5.2845C6.75326 5.31576 6.71055 5.33333 6.66635 5.33333H6.00034C5.95613 5.33333 5.91343 5.31576 5.88217 5.2845C5.85092 5.25324 5.83334 5.21054 5.83334 5.16634C5.83343 5.12233 5.85109 5.08031 5.88217 5.04915C5.91343 5.01789 5.95613 5.00032 6.00034 5.00032ZM9.33334 5.00032H10.0003C10.0444 5.00041 10.0863 5.01797 10.1175 5.04915C10.1487 5.08033 10.1663 5.12225 10.1664 5.16634C10.1664 5.21054 10.1488 5.25324 10.1175 5.2845C10.0864 5.31558 10.0443 5.33324 10.0003 5.33333H9.33334C9.28914 5.33333 9.24644 5.31576 9.21518 5.2845C9.18402 5.25326 9.16635 5.21046 9.16635 5.16634C9.16644 5.1224 9.1842 5.0803 9.21518 5.04915C9.24644 5.01789 9.28914 5.00032 9.33334 5.00032Z" fill="black" stroke="#F5AF00"/>
</svg>
