<svg width="14" height="15" viewBox="0 0 14 15" fill="none" xmlns="http://www.w3.org/2000/svg">
<path d="M9.91656 1.08377C10.0712 1.08377 10.2193 1.14538 10.3287 1.25467C10.438 1.36399 10.4995 1.51219 10.4996 1.66678V2.25076H11.0836C11.5476 2.25085 11.9928 2.43535 12.3209 2.76346C12.6488 3.09162 12.8336 3.53679 12.8336 4.00076V12.1668C12.8336 12.6308 12.6488 13.0759 12.3209 13.4041C11.9928 13.7322 11.5476 13.9167 11.0836 13.9168H2.91656C2.45244 13.9168 2.00745 13.7323 1.67926 13.4041C1.35117 13.0759 1.16656 12.6308 1.16656 12.1668V4.00076C1.16656 3.53671 1.35117 3.09163 1.67926 2.76346C2.00745 2.43527 2.45244 2.25076 2.91656 2.25076H3.49957V1.66678C3.49966 1.51226 3.56125 1.36397 3.67047 1.25467C3.77987 1.14527 3.92885 1.08377 4.08356 1.08377C4.23815 1.08386 4.38635 1.14535 4.49567 1.25467C4.60499 1.36399 4.66648 1.51219 4.66656 1.66678V2.25076H9.33356V1.66678C9.33364 1.51219 9.39514 1.36399 9.50446 1.25467C9.61384 1.14537 9.76193 1.08377 9.91656 1.08377ZM2.33356 12.1668C2.33356 12.3215 2.39506 12.4705 2.50446 12.5799C2.61382 12.6891 2.76201 12.7508 2.91656 12.7508H11.0836C11.2381 12.7507 11.3864 12.6891 11.4957 12.5799C11.6051 12.4705 11.6666 12.3215 11.6666 12.1668V6.91678H2.33356V12.1668ZM7.67926 8.30838C7.91862 8.06145 8.30707 8.06149 8.54645 8.30838C8.78582 8.55533 8.78582 8.95596 8.54645 9.20291L7.86676 9.90408L8.65875 10.7215C8.89807 10.9684 8.89811 11.3691 8.65875 11.616C8.41938 11.8629 8.03093 11.8629 7.79156 11.616L6.99957 10.7986L6.20758 11.616C5.96821 11.8629 5.57976 11.8629 5.34039 11.616C5.10104 11.3691 5.10107 10.9684 5.34039 10.7215L6.13239 9.90408L5.4527 9.20291C5.21332 8.95596 5.21332 8.55533 5.4527 8.30838C5.69208 8.06148 6.08053 8.06145 6.31989 8.30838L6.99957 9.00955L7.67926 8.30838ZM2.91656 3.41678C2.76201 3.41678 2.61382 3.47848 2.50446 3.58768C2.39506 3.69707 2.33356 3.84605 2.33356 4.00076V5.75076H11.6666V4.00076C11.6666 3.84605 11.6051 3.69707 11.4957 3.58768C11.3864 3.47846 11.2381 3.41686 11.0836 3.41678H10.4996V4.00076C10.4995 4.15536 10.438 4.30355 10.3287 4.41287C10.2193 4.52217 10.0712 4.58377 9.91656 4.58377C9.76193 4.58377 9.61384 4.52217 9.50446 4.41287C9.39514 4.30355 9.33364 4.15536 9.33356 4.00076V3.41678H4.66656V4.00076C4.66648 4.15536 4.60499 4.30355 4.49567 4.41287C4.38635 4.52219 4.23815 4.58368 4.08356 4.58377C3.92885 4.58377 3.77987 4.52227 3.67047 4.41287C3.56125 4.30357 3.49966 4.15528 3.49957 4.00076V3.41678H2.91656Z" fill="#AB22FF"/>
</svg>
